<?xml version="1.0"?><svg width="160" height="160" xmlns="http://www.w3.org/2000/svg" xmlns:xlink="http://www.w3.org/1999/xlink">
 <title>simple pint</title>
 <defs>
  <linearGradient id="linearGradient835">
   <stop offset="0" stop-opacity="0.5" stop-color="#ffffff" id="stop836"/>
   <stop offset="1" stop-opacity="0.1" stop-color="#ffffff" id="stop837"/>
  </linearGradient>
  <linearGradient xlink:href="#linearGradient835" y2="0.013605" x2="1.05797" y1="0.108844" x1="0.072464" id="linearGradient842"/>
  <linearGradient xlink:href="#linearGradient835" id="linearGradient866"/>
  <linearGradient xlink:href="#linearGradient835" id="linearGradient884"/>
 </defs>
 <g>
  <title>Layer 1</title>
  <path d="m49.344501,130.824997c-1.606503,2.070007 -2.524502,5.059006 -1.836002,6.89801c1.147499,3.44899 14.228802,7.127991 25.244698,7.127991c12.851807,0 24.556107,-4.597992 25.474106,-7.127991c0.459,-1.839005 -0.688499,-4.139008 -2.294899,-6.89801c-1.836006,-4.598999 -14.917305,-6.667999 -22.4907,-6.208c-7.114403,0.230003 -19.966305,0.230003 -24.097202,6.208z" stroke-width="0.844406pt" fill-rule="evenodd" fill-opacity="0.25" fill="#7f7f7f" id="path881"/>
  <path d="m106.261002,53.680199c-1.376999,5.094101 -16.178902,10.508102 -32.704605,9.588303c-17.673096,0 -31.557598,-5.184002 -31.557598,-9.588303c0.918003,-3.484497 14.573002,-7.978699 32.246105,-7.978699c17.673195,0 31.098099,4.264301 32.016098,7.978699z" stroke-width="0.805479pt" fill-rule="evenodd" fill-opacity="0.75" fill="#fbd900" id="path888"/>
  <path d="m49.894798,129.548996c0,-14.945999 -6.723099,-80.604595 -13.314697,-95.343796c4.194798,7.335201 26.058998,9.479099 36.265396,9.175701c11.583504,0.386398 34.859505,-1.322403 40.642502,-10.012402c-8.446999,14.074001 -18.1222,77.069504 -18.023102,95.343506c1.476006,5.166992 -16.113396,7.255997 -24.069695,7.281998c-7.0382,0.024994 -19.865402,-1.600006 -21.500404,-6.445007z" stroke-width="0.844406pt" fill-rule="evenodd" fill-opacity="0.1" fill="#e6ffff" id="path863"/>
  <path d="m50.5229,130.373001c2.267899,8.246994 44.380604,8.453003 44.999104,0c0.2061,-5.773003 -39.226303,-9.070999 -44.999104,0z" stroke-width="1pt" stroke="black" fill-rule="evenodd" fill-opacity="0.75" fill="none" id="path930"/>
  <path d="m49.9627,129.505997c0,-14.945999 -5.805099,-60.599693 -8.724701,-76.718498c4.194702,7.335102 23.764,9.939003 32.134499,9.635601c9.517906,0.386402 27.515503,-1.322399 33.2985,-10.012501c-3.397995,13.844101 -11.237297,57.984398 -11.138199,76.258408c1.117104,6.96199 -16.113396,7.255997 -24.069595,7.281998c-7.038307,0.026001 -19.865402,-1.600006 -21.500504,-6.445007z" stroke-width="0.844406pt" fill-rule="evenodd" fill-opacity="0.775" fill="#ffcc00" id="path865"/>
  <path d="m41.7435,54.009201c0.384701,-3.077801 19.236599,-8.4641 31.1633,-8.079403c11.734398,0.384804 32.702202,3.462601 33.6642,7.887001c0.961998,4.4245 -22.1222,9.233601 -32.894699,9.426003c-11.349602,-0.192402 -30.2015,-4.039703 -31.9328,-9.233601z" stroke-width="1pt" stroke="black" fill-rule="evenodd" fill-opacity="0.75" fill="none" id="path926"/>
  <path d="m42.1875,54.0625l-5.625,-20.625c15,-16.875 71.5625,-9.6875 75.3125,-0.625c-1.25,7.1875 -5.311996,18.75 -6.561996,22.8125c-12.500504,6.875 -47.500504,11.875 -63.125504,-1.5625z" stroke-width="1pt" fill-rule="evenodd" fill="#ffffff" id="path929"/>
  <path d="m39.935101,39.998798c2.524498,0.9198 8.720898,3.909 12.622299,3.909c0.2295,4.598801 6.885002,82.778198 7.573399,89.446205c-1.6064,-0.230011 -6.1964,-0.919006 -8.032398,-3.219009c0.917999,-4.138992 -8.720798,-82.548195 -12.1633,-90.136196l0,0z" stroke-width="1pt" fill-rule="evenodd" fill="url(#linearGradient884)" id="path882"/>
  <path d="m54.622898,44.827499c1.147503,0.4599 1.147503,0.4599 3.213001,0.23c0.2295,4.598801 5.9669,82.318501 6.655403,88.986507c-1.606503,-0.230011 -2.524502,-0.230011 -2.754002,-0.460007c-0.917999,-7.818001 -6.4259,-79.788799 -7.114403,-88.7565l0,0z" stroke-width="1pt" fill-rule="evenodd" fill="url(#linearGradient866)" id="path883"/>
  <path d="m75.154701,22.658501c-21.396301,0 -38.7812,4.731899 -38.7812,10.5937c0,0.572201 0.3064,1.139698 0.625,1.6875c6.556499,14.660797 13.2103,79.537296 13.2812,94.937298c-0.1562,0.186005 -0.362503,0.333008 -0.5,0.531006c-1.606503,2.069992 -2.5322,5.067001 -1.8437,6.906998c1.147499,3.449005 14.2341,7.125 25.249996,7.125c12.851807,0 24.550705,-4.596008 25.468704,-7.125c0.459,-1.839996 -0.706001,-4.147003 -2.3125,-6.906998c-0.044403,-0.111008 -0.161301,-0.20401 -0.218704,-0.312012c-0.013,-0.213989 -0.1511,-0.416992 -0.25,-0.625c-0.004295,-0.008987 0.004402,-0.021988 0,-0.030991c-0.099098,-18.274002 9.584503,-81.270004 18.031502,-95.344002c-0.115997,0.173298 0,-0.398502 0,-0.8438c0,-5.861801 -17.353996,-10.5937 -38.750298,-10.5937z" stroke-width="1.2375" stroke-linejoin="round" stroke="#000000" fill-rule="evenodd" fill-opacity="0.1" fill="#bfbfbf" id="path924"/>
  <path d="m39.001202,43.588799c9.207497,9.6544 47.058697,14.588902 70.826801,-0.858097c-0.431999,1.683399 -0.988007,2.805698 -1.070999,3.432598c-12.633102,11.799801 -56.562202,15.232502 -68.981705,0.2146c0.184002,0.015102 -0.392799,-2.096901 -0.774097,-2.789101z" stroke-width="0.844406pt" stroke-linejoin="round" stroke="#000000" fill-rule="evenodd" fill="#003f00" id="path889"/>
  <path d="m36.542,35.362999c1.875,9.0625 61.118896,16.727001 76.891998,-1.3097" stroke-width="1pt" stroke="black" fill-rule="evenodd" fill-opacity="0.75" fill="none" id="path925"/>
  <g transform="matrix(1.16625 0 0 1.12396 302.444 110.262)" id="g902">
   <path d="m-219.027008,-6.267529c4.03299,1.33013 2.631989,-4.478869 0.990997,-5.768769c0.914993,0.086599 0.144989,-1.01 0.144989,-2.479401c0.721008,-0.7205 0.131012,-1.340899 0.131012,-2.222301c-0.994003,-0.9935 0.994995,-1.993898 0.994995,-3.554499c0,-1.553501 -0.421997,-2.673601 -0.421997,-4.299301c0,-2.361198 -0.25,-1.5231 -1.412003,-5.0089c1.087997,-0.424599 2.274002,-1.4846 0.897003,-2.692299c2.160995,-0.239502 3.218994,-2.354202 0.539001,-4.666599c4.072998,0 -4.230011,-8.730503 2.692001,-6.999802c2.222,-0.555599 1.794998,-2.215099 1.794998,-4.307701c2.871994,3.9487 6.894989,2.6213 7.537994,0c1.348999,4.399803 10.589996,2.586903 10.589996,-2.8717c0.179001,6.750202 7.118011,3.404602 8.436005,3.948601c-1.615997,1.866199 1.584,9.079601 4.307007,9.153702c-6.309006,4.7323 -5.173004,13.001099 2.512985,14.538198c3.894012,0 5.38501,-3.2785 5.38501,-7.897299c1.255997,2.6448 6.972,4.279799 6.998993,-0.179401c2.872009,5.5445 6.496002,-1.470398 4.307999,-2.1539c5.026001,1.905701 3.091003,-7.0788 1.257004,-9.153599c2.871002,-0.914501 1.956009,-7.520802 0.179001,-9.6922c2.621002,2.665199 6.738007,-0.8311 6.281998,-5.923c1.227997,3.467098 9.147003,-0.368301 3.768997,-8.435703c0,-1.545197 -4.487,-1.748795 -5.563995,-0.538498c-0.014999,-5.446098 -4.099991,-9.692101 -7,-8.615196c1.798996,-2.692307 -9.048004,-4.898903 -11.306992,-0.538506c1.349991,-5.700798 -13.811005,-9.333099 -14.180008,-6.102394c-1.748001,-2.512802 -11.770004,-2.558601 -14.716995,6.281898c0,-4.860603 -16.309006,-6.999901 -15.973999,0.359001c-3.490005,-2.433105 -9.227997,0.358994 -8.794998,3.230698c-5.38501,-2.7034 -7.84201,9.5611 -3.410004,10.230598c-2.513,2.262402 -2.692001,11.311001 0.537994,11.128002c-1.973999,2.1297 -0.897003,8.4366 1.257004,8.615299c-1.680008,2.320499 0.244995,13.673901 7.179001,11.8459c0,2.5235 2.852997,4.8652 1.964996,7.530001c0,1.5455 -0.072998,3.537399 -0.072998,5.1717c0.371994,0.744101 -0.270004,3.237901 1.528,4.462101c-4.216995,1.7593 -3.962006,7.20264 0.639008,7.605269z" stroke-width="1pt" stroke-linejoin="round" stroke="#000000" fill-rule="evenodd" fill="#ffffff" id="path844"/>
   <path d="m-225.386017,-54.2855c-1.509003,-1.649399 1.222,-7.039501 4.242996,-6.762199c0.689011,-2.474102 2.585999,-2.8927 4.687012,-2.1875c-1.047012,-2.044899 1.503998,-3.991699 3.75,-1.681702c1.51799,-2.621902 4.677994,-4.645203 6.356995,-3.2314c-0.132004,-3.373001 6.063004,-6.793602 8.330994,-3.836899c0,0.605995 -0.362991,1.875 0,1.875" stroke-width="1pt" stroke-linejoin="round" stroke="#000000" fill-rule="evenodd" fill-opacity="0.75" fill="none" id="path846"/>
   <path d="m-188.331009,-64.485199c-0.103012,-4.720901 14.009995,-8.590599 11.25,-0.3125c1.269989,-0.634598 6.875,-1.299004 5.845001,2.313297c4.122986,-0.465599 10.389999,1.104702 6.661987,6.688301c2.396011,1.805702 1.330002,6.6959 -0.319,5.060902" stroke-width="1pt" stroke-linejoin="round" stroke="#000000" fill-rule="evenodd" fill-opacity="0.75" fill="none" id="path847"/>
  </g>
  <path d="m50.004299,132.231995c0,0 -2.2845,4.822998 -0.761497,6.09201c1.269199,2.030991 12.691399,6.598999 23.3522,6.598999c-3.299698,-2.53801 -14.722,-4.315002 -22.590702,-12.69101z" stroke-width="1pt" fill-rule="evenodd" fill="url(#linearGradient842)" id="path869"/>
 </g>
</svg>