<?xml version="1.0"?><svg width="160" height="160" xmlns="http://www.w3.org/2000/svg" xmlns:xlink="http://www.w3.org/1999/xlink">
 <title>beer</title>
 <defs>
  <linearGradient id="linearGradient835">
   <stop stop-color="#ffffff" stop-opacity="0.5" offset="0" id="stop836"/>
   <stop stop-color="#ffffff" stop-opacity="0.1" offset="1" id="stop837"/>
  </linearGradient>
  <linearGradient y2="0.65625" y1="0.117188" xlink:href="#linearGradient835" x2="0.9" x1="0.2125" id="linearGradient838"/>
  <linearGradient y2="1.805556" y1="0.138889" xlink:href="#linearGradient835" x2="0.608696" x1="0.065217" id="linearGradient840"/>
  <linearGradient y2="1.293103" y1="0.077586" xlink:href="#linearGradient835" x2="0.985507" x1="0.155797" id="linearGradient842"/>
 </defs>
 <g>
  <title>Layer 1</title>
  <path fill="#ff7f00" fill-rule="evenodd" stroke="black" stroke-width="1pt" stroke-linejoin="round" id="path825" d="m37.931087,33.449478c2.351921,1.226322 22.368282,5.487801 33.972118,5.226482c16.52742,0.261318 30.313591,-6.049652 32.926834,-7.05575c0,1.43368 -2.3069,10.272921 -2.613243,15.679438c0,5.44754 1.829285,28.414768 2.090599,33.710804c0.867844,6.178185 2.70401,13.861191 4.442505,19.07666c1.829269,3.553886 -23.562904,9.854034 -34.756096,10.452957c-12.602516,0.783974 -38.937275,-4.371071 -37.369335,-8.362373c0,-3.968346 3.658539,-13.382713 3.658539,-19.599297c0.52264,-6.02494 -0.26133,-23.272739 -0.26133,-30.836239c-0.261322,-6.77956 -1.053669,-12.560299 -2.090591,-18.292683z"/>
  <path fill="#ffd4aa" fill-rule="evenodd" stroke="black" stroke-width="1pt" id="path827" d="m36.324039,103.222992c-5.585569,-1.331055 -7.87904,10.112999 -1.829269,12.020905c6.367432,3.754196 29.703259,7.055756 39.198612,6.271782c11.100975,-0.261322 31.192665,-4.442497 35.801376,-8.362366c6.134171,-3.919861 5.465355,-13.0662 0,-12.020905c-3.278557,3.658539 -26.69873,8.88501 -36.58535,9.407661c-9.222797,0.783974 -30.74913,-2.526131 -36.585369,-7.317078z"/>
  <path fill="#ffd4aa" fill-rule="evenodd" stroke="#000000" stroke-width="1.25" stroke-linejoin="bevel" id="path828" d="m102.850746,42.6092c1.244743,-3.21122 9.638649,-6.971481 12.363251,-7.51548c4.686829,-1.05064 12.384521,-1.387829 16.763939,4.28009c7.939087,10.323151 6.762268,28.625473 2.861084,34.637703c-2.776138,5.103905 -9.371384,10.28167 -14.636101,11.877625c-5.15036,1.533676 -12.70649,2.66098 -14.332062,3.711617c-0.350807,-1.296341 -1.327019,-7.387825 -1.380936,-9.07122c1.950584,0.128265 7.489014,-0.8927 11.695915,-1.868004c3.901184,-0.898819 6.449654,-3.274132 9.335098,-6.222443c4.9944,-4.699844 4.343933,-21.159077 0.537094,-25.056465c-2.232582,-2.262482 -6.848183,-3.904423 -9.914833,-3.32304c-4.992218,1.031647 -13.676529,7.365528 -13.676529,6.979919c-0.508705,-2.079491 -0.250748,-6.159061 0.384079,-8.430302z"/>
  <path fill="#ffd4aa" fill-rule="evenodd" stroke="#000000" stroke-width="1.25" stroke-linejoin="round" id="path830" d="m57.712429,46.931259c1.655231,1.206551 -1.355209,16.955212 -0.941399,28.131073c0.413799,14.29538 1.443371,23.527901 -0.521629,24.635559c-3.107719,1.67421 -9.90099,-0.13575 -12.045723,-2.420761c-1.273197,-1.506653 1.805843,-10.239738 2.012741,-16.428528c-0.413799,-8.711113 -1.702648,-33.303452 -0.461227,-34.777851c2.252369,-2.053673 9.681297,-1.152462 11.957237,0.860508z"/>
  <path fill="#ffd4aa" fill-rule="evenodd" stroke="black" stroke-width="1pt" id="path832" d="m66.302567,47.600368c-1.478264,1.424442 -0.063408,19.624943 -0.063408,22.55904c0.305351,3.808372 -1.101006,27.452545 -0.177086,28.954445c1.847824,2.12188 10.215454,2.441956 13.000534,-0.356445c1.505226,-1.874779 -0.477814,-22.544151 -0.477814,-27.67952c0,-5.510666 1.407173,-22.05196 -0.440666,-23.580318c-2.032623,-2.149342 -8.439278,-3.179581 -11.84156,0.102798z"/>
  <path fill="#ffd4aa" fill-rule="evenodd" stroke="#000000" stroke-width="1.25" stroke-linejoin="round" id="path833" d="m85.991188,46.093552c-1.657776,1.256367 1.179436,15.800228 1.194016,26.982185c0.13765,14.29966 -1.244194,24.662025 0.824059,25.709061c3.267944,1.578369 10.880989,-1.541718 13.000557,-3.890854c1.252335,-1.544647 -1.411362,-10.178642 -2.081985,-16.357491c-0.983833,-8.164307 0.147583,-33.128632 -1.189621,-34.564274c-2.401649,-1.983719 -9.481529,0.0401 -11.747025,2.121372z"/>
  <path fill="url(#linearGradient838)" fill-rule="evenodd" stroke-width="1pt" id="path834" d="m79.272339,39.683949c-4.989166,1.1087 -36.587238,-3.141327 -39.728558,-4.804379c0.92392,4.619591 3.141319,45.272079 1.663048,49.891678c0.184792,2.032623 -3.880459,15.15229 -3.695679,17.924049c17.18491,-68.370087 39.728573,-48.967758 41.761189,-63.011349z"/>
  <path fill="url(#linearGradient840)" fill-rule="evenodd" stroke-width="1pt" id="path839" d="m35.717339,103.872581c-3.051228,-0.897423 -5.205038,6.820396 -2.87175,9.153687c5.743492,2.692261 13.28183,-2.333298 38.230118,-1.615349c-12.743366,-0.358971 -31.589195,-2.87175 -35.358368,-7.538338z"/>
  <path fill="url(#linearGradient842)" fill-rule="evenodd" stroke-width="1pt" id="path841" d="m104.280273,42.130051c4.487106,-4.48711 8.794716,-5.564011 13.999756,-6.46143c8.794724,-2.333302 14.897186,3.769157 16.871506,11.845947c-4.487106,-7.179359 -10.230583,-8.256268 -14.179237,-8.435749c-4.128136,0.71793 -15.794609,7.897301 -16.871506,9.15369c-1.076912,1.25639 -0.717941,-4.128139 0.179482,-6.102459z"/>
  <path fill="#f7ba59" fill-rule="evenodd" stroke="black" stroke-width="1pt" stroke-linejoin="round" id="path844" d="m36.098469,85.903267c2.38319,1.158981 4.281082,-1.56929 3.464943,-3.030327c0.915028,0.086578 1.794838,-0.325394 1.794838,-1.794838c0.72044,-0.720444 -0.364609,-1.854355 -0.364609,-2.735725c-0.99353,-0.993538 0.005638,-2.165024 0.005638,-3.725708c0,-1.55349 0.89743,-2.502441 0.89743,-4.128136c0,-2.361122 2.059372,-1.180725 0.897411,-4.66658c1.088188,-0.424553 2.274139,-1.484535 0.897419,-2.692265c2.160122,-0.239517 3.21859,-2.354187 0.53846,-4.666588c4.073441,0 -4.230209,-8.730499 2.692261,-6.999882c2.22205,-0.555508 1.794838,-2.215057 1.794838,-4.307617c2.87175,3.94865 6.89542,2.621269 7.53833,0c1.348591,4.399818 10.589565,2.58691 10.589565,-2.871742c0.179489,6.750202 7.117683,3.404633 8.435753,3.94865c-1.615356,1.866161 1.584053,9.079601 4.307625,9.15369c-6.309685,4.73225 -5.172905,13.001083 2.512779,14.538208c3.893799,0 5.384521,-3.278526 5.384521,-7.897301c1.256386,2.64473 6.971985,4.279724 6.999878,-0.179489c2.87175,5.544563 6.495934,-1.470367 4.307617,-2.153809c5.025566,1.905682 3.090691,-7.078789 1.256393,-9.15369c2.87175,-0.914471 1.956718,-7.520718 0.179482,-9.692139c2.621208,2.66515 6.738464,-0.831112 6.281944,-5.92297c1.227951,3.467049 9.147484,-0.368282 3.769165,-8.43576c0,-1.54513 -4.487099,-1.748819 -5.564003,-0.53845c-0.015411,-5.44615 -4.099731,-9.692141 -6.999886,-8.61524c1.798965,-2.692261 -9.048042,-4.89889 -11.307495,-0.53845c1.350525,-5.70082 -13.810524,-9.33317 -14.179245,-6.10246c-1.74823,-2.512779 -11.770863,-2.55857 -14.717701,6.28194c0,-4.860589 -16.308563,-6.999879 -15.974091,0.358971c-3.48991,-2.43306 -9.22736,0.358971 -8.794712,3.230721c-5.384529,-2.70339 -7.84203,9.5611 -3.410198,10.230591c-2.512781,2.262398 -2.69227,11.310989 0.538448,11.128017c-1.974329,2.129711 -0.897419,8.436581 1.25639,8.615231c-1.679428,2.32056 0.245701,13.673908 7.179359,11.845959c0,2.523445 0.708771,4.694084 -0.179478,7.358849c0,1.545456 -0.897419,2.852837 -0.897419,4.487106c0.372059,0.74411 -1.259712,2.724434 0.538448,3.948647c-4.216728,1.759277 -3.30238,4.464211 -1.670101,5.722588z"/>
  <path fill="none" fill-rule="evenodd" stroke="black" stroke-width="1pt" stroke-linejoin="round" fill-opacity="0.75" id="path846" d="m37.007252,41.137192c-1.509422,-1.649384 1.221348,-7.039562 4.242748,-6.762192c0.68861,-2.474079 2.585941,-2.89271 4.6875,-2.1875c-1.047661,-2.04493 1.503109,-3.991711 3.75,-1.681789c1.51709,-2.62183 4.67754,-4.64514 6.356331,-3.231321c-0.131931,-3.37302 6.063271,-6.793629 8.331169,-3.836889c0,0.606001 -0.362663,1.875 0,1.875"/>
  <path fill="none" fill-rule="evenodd" stroke="black" stroke-width="1pt" stroke-linejoin="round" fill-opacity="0.75" id="path847" d="m74.0625,30.9375c-0.103813,-4.72093 14.009377,-8.590651 11.25,-0.3125c1.269218,-0.634609 6.875,-1.299021 5.844131,2.313271c4.123466,-0.46558 10.39032,1.10474 6.662346,6.688271c2.395935,1.805679 1.330406,6.695919 -0.318977,5.060959"/>
 </g>
</svg>